<mxfile host="app.diagrams.net" modified="2022-07-28T22:02:29.361Z" agent="5.0 (Windows NT 10.0; Win64; x64) AppleWebKit/537.36 (KHTML, like Gecko) Chrome/103.0.0.0 Safari/537.36" etag="gkoup8DboMFy_80MDUoN" version="20.2.0" type="github">
  <diagram id="Zk0gkQbKJXdQOOwpL5J1" name="Page-1">
    <mxGraphModel dx="1583" dy="1547" grid="1" gridSize="10" guides="1" tooltips="1" connect="1" arrows="1" fold="1" page="1" pageScale="1" pageWidth="1100" pageHeight="850" math="0" shadow="0">
      <root>
        <mxCell id="0" />
        <mxCell id="1" parent="0" />
        <mxCell id="hqVjYaUQH7NNC5rdl6VV-24" value="" style="strokeWidth=1;shadow=0;dashed=0;align=center;html=1;shape=mxgraph.mockup.containers.browserWindow;rSize=0;strokeColor=#666666;strokeColor2=#008cff;strokeColor3=#c4c4c4;mainText=,;recursiveResize=0;" vertex="1" parent="1">
          <mxGeometry x="30" y="-800" width="1050" height="760" as="geometry" />
        </mxCell>
        <mxCell id="hqVjYaUQH7NNC5rdl6VV-25" value="Page 1" style="strokeWidth=1;shadow=0;dashed=0;align=center;html=1;shape=mxgraph.mockup.containers.anchor;fontSize=17;fontColor=#666666;align=left;" vertex="1" parent="hqVjYaUQH7NNC5rdl6VV-24">
          <mxGeometry x="60" y="12" width="110" height="26" as="geometry" />
        </mxCell>
        <mxCell id="hqVjYaUQH7NNC5rdl6VV-26" value="https://www.draw.io" style="strokeWidth=1;shadow=0;dashed=0;align=center;html=1;shape=mxgraph.mockup.containers.anchor;rSize=0;fontSize=17;fontColor=#666666;align=left;" vertex="1" parent="hqVjYaUQH7NNC5rdl6VV-24">
          <mxGeometry x="130" y="60" width="250" height="26" as="geometry" />
        </mxCell>
        <mxCell id="hqVjYaUQH7NNC5rdl6VV-36" value="Search" style="strokeWidth=1;shadow=0;dashed=0;align=center;html=1;shape=mxgraph.mockup.forms.searchBox;strokeColor=#999999;mainText=;strokeColor2=#008cff;fontColor=#666666;fontSize=17;align=left;spacingLeft=3;" vertex="1" parent="hqVjYaUQH7NNC5rdl6VV-24">
          <mxGeometry x="880" y="130" width="150" height="30" as="geometry" />
        </mxCell>
        <mxCell id="hqVjYaUQH7NNC5rdl6VV-27" value="Option" style="strokeWidth=1;shadow=0;dashed=0;align=center;html=1;shape=mxgraph.mockup.forms.comboBox;strokeColor=#999999;fillColor=#ddeeff;align=left;fillColor2=#aaddff;mainText=;fontColor=#666666;fontSize=17;spacingLeft=3;" vertex="1" parent="hqVjYaUQH7NNC5rdl6VV-24">
          <mxGeometry x="450" y="250" width="150" height="30" as="geometry" />
        </mxCell>
        <mxCell id="hqVjYaUQH7NNC5rdl6VV-38" value="Meal Plan" style="text;strokeColor=none;fillColor=none;html=1;fontSize=24;fontStyle=1;verticalAlign=middle;align=center;" vertex="1" parent="hqVjYaUQH7NNC5rdl6VV-24">
          <mxGeometry x="475" y="130" width="100" height="40" as="geometry" />
        </mxCell>
        <mxCell id="hqVjYaUQH7NNC5rdl6VV-39" value="" style="verticalLabelPosition=bottom;shadow=0;dashed=0;align=center;html=1;verticalAlign=top;strokeWidth=1;shape=mxgraph.mockup.forms.splitter;strokeColor=#999999;direction=north;" vertex="1" parent="hqVjYaUQH7NNC5rdl6VV-24">
          <mxGeometry x="210" y="110" width="10" height="580" as="geometry" />
        </mxCell>
        <mxCell id="hqVjYaUQH7NNC5rdl6VV-41" value="" style="verticalLabelPosition=bottom;shadow=0;dashed=0;align=center;html=1;verticalAlign=top;strokeWidth=1;shape=mxgraph.mockup.forms.splitter;strokeColor=#999999;direction=north;" vertex="1" parent="hqVjYaUQH7NNC5rdl6VV-24">
          <mxGeometry x="850" y="110" width="10" height="580" as="geometry" />
        </mxCell>
        <mxCell id="hqVjYaUQH7NNC5rdl6VV-34" value="" style="verticalLabelPosition=bottom;shadow=0;dashed=0;align=center;html=1;verticalAlign=top;strokeWidth=1;shape=mxgraph.mockup.forms.splitter;strokeColor=#999999;" vertex="1" parent="hqVjYaUQH7NNC5rdl6VV-24">
          <mxGeometry y="680" width="1050" height="10" as="geometry" />
        </mxCell>
        <mxCell id="hqVjYaUQH7NNC5rdl6VV-42" value="&lt;font style=&quot;font-size: 18px;&quot;&gt;Pick an option&lt;/font&gt;" style="text;html=1;strokeColor=none;fillColor=none;align=center;verticalAlign=middle;whiteSpace=wrap;rounded=0;" vertex="1" parent="hqVjYaUQH7NNC5rdl6VV-24">
          <mxGeometry x="443.75" y="220" width="162.5" height="30" as="geometry" />
        </mxCell>
        <mxCell id="hqVjYaUQH7NNC5rdl6VV-43" value="" style="sketch=0;outlineConnect=0;fillColor=#1ba1e2;strokeColor=#006EAF;dashed=0;verticalLabelPosition=bottom;verticalAlign=top;align=center;html=1;fontSize=12;fontStyle=0;aspect=fixed;pointerEvents=1;shape=mxgraph.aws4.container_registry_image;fontColor=#ffffff;" vertex="1" parent="hqVjYaUQH7NNC5rdl6VV-24">
          <mxGeometry x="460" y="315" width="120" height="120" as="geometry" />
        </mxCell>
        <mxCell id="hqVjYaUQH7NNC5rdl6VV-62" value="&lt;font style=&quot;font-size: 16px;&quot;&gt;Meal Name&lt;/font&gt;" style="text;html=1;strokeColor=none;fillColor=none;align=center;verticalAlign=middle;whiteSpace=wrap;rounded=0;" vertex="1" parent="hqVjYaUQH7NNC5rdl6VV-24">
          <mxGeometry x="438.75" y="450" width="162.5" height="30" as="geometry" />
        </mxCell>
        <mxCell id="hqVjYaUQH7NNC5rdl6VV-63" value="&lt;font style=&quot;font-size: 16px;&quot;&gt;Instructions&lt;/font&gt;" style="text;html=1;strokeColor=none;fillColor=none;align=center;verticalAlign=middle;whiteSpace=wrap;rounded=0;" vertex="1" parent="hqVjYaUQH7NNC5rdl6VV-24">
          <mxGeometry x="438.75" y="500" width="162.5" height="30" as="geometry" />
        </mxCell>
        <mxCell id="hqVjYaUQH7NNC5rdl6VV-64" value="&lt;font style=&quot;font-size: 16px;&quot;&gt;Ingredients&lt;/font&gt;" style="text;html=1;strokeColor=none;fillColor=none;align=center;verticalAlign=middle;whiteSpace=wrap;rounded=0;" vertex="1" parent="hqVjYaUQH7NNC5rdl6VV-24">
          <mxGeometry x="873.75" y="220" width="162.5" height="30" as="geometry" />
        </mxCell>
        <mxCell id="hqVjYaUQH7NNC5rdl6VV-65" value="Login" style="html=1;strokeColor=none;fillColor=#0079D6;labelPosition=center;verticalLabelPosition=middle;verticalAlign=top;align=center;fontSize=12;outlineConnect=0;spacingTop=-6;fontColor=#FFFFFF;sketch=0;shape=mxgraph.sitemap.login;" vertex="1" parent="hqVjYaUQH7NNC5rdl6VV-24">
          <mxGeometry x="40" y="280" width="120" height="80" as="geometry" />
        </mxCell>
        <mxCell id="hqVjYaUQH7NNC5rdl6VV-40" value="" style="verticalLabelPosition=bottom;shadow=0;dashed=0;align=center;html=1;verticalAlign=top;strokeWidth=1;shape=mxgraph.mockup.forms.splitter;strokeColor=#999999;" vertex="1" parent="1">
          <mxGeometry x="30" y="-610" width="1050" height="10" as="geometry" />
        </mxCell>
      </root>
    </mxGraphModel>
  </diagram>
</mxfile>
